# xmcd
#
# Track frame offsets:
#	150
#	15954
#	33504
#	48654
#	62604
#	78804
#	95229
#	112104
#	126654
#
# Disc length: 1900 seconds
#
# Revision: 1
# Processed by: cddbd v1.5.1PL2 Copyright (c) Steve Scherf et al.
# Submitted via: audiograbber 1.83.01
#
DISCID=77076a09
DTITLE=BOJAN BJELIC - Mesec od papira
DYEAR=2004
DGENRE=Pop
TTITLE0=Rodjendan
TTITLE1=Emotivnije
TTITLE2=San za jedan dan
TTITLE3=Kad ljubav ledja okrene
TTITLE4=Isto k'o i sad
TTITLE5=Kocka leda
TTITLE6=Od sobe do sobe
TTITLE7=Mesec od papira
TTITLE8=Zenske lazi
EXTD=
EXTT0=
EXTT1=
EXTT2=
EXTT3=
EXTT4=
EXTT5=
EXTT6=
EXTT7=
EXTT8=
PLAYORDER=
